<svg width="249" height="225" viewBox="0 0 249 225" fill="none" xmlns="http://www.w3.org/2000/svg">
<path d="M101.75 14.4497C109.068 1.77499 125.275 -2.56771 137.95 4.75006C150.624 12.0678 154.967 28.275 147.649 40.9497L50.1493 209.825C42.8316 222.499 26.6244 226.842 13.9497 219.524C1.27492 212.207 -3.06777 195.999 4.25 183.325L101.75 14.4497Z" fill="#A7B829"/>
<path d="M100.25 40.4497C92.9322 27.775 97.2749 11.5678 109.95 4.25006C122.624 -3.06771 138.832 1.27498 146.149 13.9497L243.649 182.825C250.967 195.499 246.624 211.707 233.95 219.024C221.275 226.342 205.068 221.999 197.75 209.325L100.25 40.4497Z" fill="#C2D52C"/>
<path d="M27 224.5C12.3645 224.5 0.5 212.636 0.5 198C0.5 183.365 12.3645 171.5 27 171.5H222C236.636 171.5 248.5 183.365 248.5 198C248.5 212.636 236.636 224.5 222 224.5H27Z" fill="#D4EA2B"/>
</svg>
