<svg width="1600" height="1600" viewBox="0 0 1600 1600" fill="none" xmlns="http://www.w3.org/2000/svg">
<path d="M0 1100C0 823.858 223.858 600 500 600C591.072 600 676.456 624.351 750 666.894C600.55 753.346 500 914.93 500 1100C500 1285.07 600.55 1446.65 750 1533.11C676.456 1575.65 591.072 1600 500 1600C223.858 1600 0 1376.14 0 1100Z" fill="#669EE2"/>
<path d="M500 0C776.142 0 1000 223.858 1000 500C1000 591.072 975.649 676.456 933.106 750C846.654 600.55 685.07 500 500 500C314.93 500 153.345 600.55 66.8926 750C24.3497 676.456 0 591.072 0 500C0 223.858 223.858 0 500 0Z" fill="#669EE2"/>
<path d="M1100 1600C823.858 1600 600 1376.14 600 1100C600 1008.93 624.351 923.544 666.894 850C753.346 999.45 914.93 1100 1100 1100C1285.07 1100 1446.65 999.45 1533.11 850C1575.65 923.543 1600 1008.93 1600 1100C1600 1376.14 1376.14 1600 1100 1600Z" fill="#669EE2"/>
<path d="M1600 500C1600 776.142 1376.14 1000 1100 1000C1008.93 1000 923.544 975.649 850 933.106C999.45 846.654 1100 685.07 1100 500C1100 314.93 999.45 153.345 850 66.8926C923.543 24.3498 1008.93 0 1100 0C1376.14 0 1600 223.858 1600 500Z" fill="#669EE2"/>
</svg>
